<svg xmlns="http://www.w3.org/2000/svg" viewBox="0 0 100 100">
  <path d="
    M50 8
    C47 8 44 11 44 15
    L44 42
    L8 62
    C6 63 5 65 5 67
    L5 71
    C5 73 7 74 9 73
    L44 60
    L44 74
    L34 80
    C33 81 32 82 32 84
    L32 88
    C32 90 34 91 36 90
    L50 85
    L64 90
    C66 91 68 90 68 88
    L68 84
    C68 82 67 81 66 80
    L56 74
    L56 60
    L91 73
    C93 74 95 73 95 71
    L95 67
    C95 65 94 63 92 62
    L56 42
    L56 15
    C56 11 53 8 50 8
    Z
  " fill="black"/>
</svg>
